<svg xmlns="http://www.w3.org/2000/svg" width="563" height="144" viewBox="0 0 563 144"><g transform="translate(-1281 -636)"><g transform="translate(1281 636)" fill="none" stroke="#fff" stroke-width="1"><rect width="265" height="100" rx="6" stroke="none"/><rect x="0.5" y="0.5" width="264" height="99" rx="5.5" fill="none"/></g><g transform="translate(1390.66 665.316)"><path d="M23.227,2H7.845A3.845,3.845,0,0,0,4,5.845V36.608a3.845,3.845,0,0,0,3.845,3.845H30.917a3.845,3.845,0,0,0,3.845-3.845V13.536Z" transform="translate(-4 -2)" fill="none" stroke="#46c97f" stroke-linecap="round" stroke-linejoin="round" stroke-width="2"/><path d="M14,2V13.536H25.536" transform="translate(5.227 -2)" fill="none" stroke="#46c97f" stroke-linecap="round" stroke-linejoin="round" stroke-width="2"/><line x1="15.353" transform="translate(7.676 21.182)" fill="none" stroke="#46c97f" stroke-linecap="round" stroke-linejoin="round" stroke-width="2"/><line x1="15.353" transform="translate(7.676 28.858)" fill="none" stroke="#46c97f" stroke-linecap="round" stroke-linejoin="round" stroke-width="2"/><path d="M11.845,9H8" transform="translate(-0.309 4.459)" fill="none" stroke="#46c97f" stroke-linecap="round" stroke-linejoin="round" stroke-width="2"/></g><g transform="translate(298)"><g transform="translate(1281 636)" fill="none" stroke="#fff" stroke-width="1"><rect width="265" height="100" rx="6" stroke="none"/><rect x="0.5" y="0.5" width="264" height="99" rx="5.5" fill="none"/></g><g transform="translate(1390.66 665.316)"><path d="M23.227,2H7.845A3.845,3.845,0,0,0,4,5.845V36.608a3.845,3.845,0,0,0,3.845,3.845H30.917a3.845,3.845,0,0,0,3.845-3.845V13.536Z" transform="translate(-4 -2)" fill="none" stroke="#f84067" stroke-linecap="round" stroke-linejoin="round" stroke-width="2"/><path d="M14,2V13.536H25.536" transform="translate(5.227 -2)" fill="none" stroke="#f84067" stroke-linecap="round" stroke-linejoin="round" stroke-width="2"/><line x1="15.353" transform="translate(7.676 21.182)" fill="none" stroke="#f84067" stroke-linecap="round" stroke-linejoin="round" stroke-width="2"/><line x1="15.353" transform="translate(7.676 28.858)" fill="none" stroke="#f84067" stroke-linecap="round" stroke-linejoin="round" stroke-width="2"/><path d="M11.845,9H8" transform="translate(-0.309 4.459)" fill="none" stroke="#f84067" stroke-linecap="round" stroke-linejoin="round" stroke-width="2"/></g></g><path d="M10052.32,4035.234v-45.707h299.34v45.707" transform="translate(11753.98 4756.762) rotate(180)" fill="none" stroke="#f84067" stroke-width="1" stroke-dasharray="7"/><circle cx="17.5" cy="17.5" r="17.5" transform="translate(1545 745)" fill="#ffd7df"/><g transform="translate(1544 744)"><path d="M16.5,0A16.5,16.5,0,1,1,0,16.5,16.5,16.5,0,0,1,16.5,0Z" transform="translate(2 2)" fill="rgba(198,198,198,0)" stroke="#f84067" stroke-linecap="round" stroke-width="1.5"/><line x1="10" y2="10" transform="translate(14 14)" fill="none" stroke="#f84067" stroke-linecap="round" stroke-linejoin="round" stroke-width="1.5"/><line x2="10" y2="10" transform="translate(14 14)" fill="none" stroke="#f84067" stroke-linecap="round" stroke-linejoin="round" stroke-width="1.5"/></g></g></svg>